<svg width="89" height="84" viewBox="0 0 89 84" fill="none" xmlns="http://www.w3.org/2000/svg">
<mask id="path-1-outside-1_1_182" maskUnits="userSpaceOnUse" x="-0.5" y="0.5" width="90" height="84" fill="black">
<rect fill="white" x="-0.5" y="0.5" width="90" height="84"/>
<path d="M44.5 79.7549C44.0923 79.7549 43.6031 79.6326 43.0323 79.3879C42.4887 79.1705 41.9994 78.9259 41.5645 78.6541C33.8997 73.7616 27.2541 68.6382 21.6278 63.2836C16.0015 57.902 11.6527 52.3844 8.58132 46.7309C5.53714 41.0502 4.01505 35.3152 4.01505 29.5258C4.01505 25.9108 4.58583 22.6084 5.7274 19.6186C6.89615 16.6016 8.51337 13.9923 10.5791 11.7907C12.6448 9.5891 15.0502 7.89034 17.7954 6.69441C20.5406 5.49847 23.5169 4.90051 26.7241 4.90051C30.7196 4.90051 34.2259 5.91977 37.2429 7.95829C40.2599 9.9968 42.6789 12.6876 44.5 16.0308C46.3483 12.6605 48.7809 9.96962 51.7979 7.95829C54.8149 5.91977 58.3076 4.90051 62.2759 4.90051C65.4831 4.90051 68.4594 5.49847 71.2046 6.69441C73.977 7.89034 76.3824 9.5891 78.4209 11.7907C80.4866 13.9923 82.0903 16.6016 83.2318 19.6186C84.4006 22.6084 84.985 25.9108 84.985 29.5258C84.985 35.3152 83.4493 41.0502 80.3779 46.7309C77.3337 52.3844 72.9985 57.902 67.3722 63.2836C61.773 68.6382 55.1411 73.7616 47.4762 78.6541C47.0414 78.9259 46.5385 79.1705 45.9677 79.3879C45.4241 79.6326 44.9349 79.7549 44.5 79.7549Z"/>
</mask>
<path d="M44.5 79.7549C44.0923 79.7549 43.6031 79.6326 43.0323 79.3879C42.4887 79.1705 41.9994 78.9259 41.5645 78.6541C33.8997 73.7616 27.2541 68.6382 21.6278 63.2836C16.0015 57.902 11.6527 52.3844 8.58132 46.7309C5.53714 41.0502 4.01505 35.3152 4.01505 29.5258C4.01505 25.9108 4.58583 22.6084 5.7274 19.6186C6.89615 16.6016 8.51337 13.9923 10.5791 11.7907C12.6448 9.5891 15.0502 7.89034 17.7954 6.69441C20.5406 5.49847 23.5169 4.90051 26.7241 4.90051C30.7196 4.90051 34.2259 5.91977 37.2429 7.95829C40.2599 9.9968 42.6789 12.6876 44.5 16.0308C46.3483 12.6605 48.7809 9.96962 51.7979 7.95829C54.8149 5.91977 58.3076 4.90051 62.2759 4.90051C65.4831 4.90051 68.4594 5.49847 71.2046 6.69441C73.977 7.89034 76.3824 9.5891 78.4209 11.7907C80.4866 13.9923 82.0903 16.6016 83.2318 19.6186C84.4006 22.6084 84.985 25.9108 84.985 29.5258C84.985 35.3152 83.4493 41.0502 80.3779 46.7309C77.3337 52.3844 72.9985 57.902 67.3722 63.2836C61.773 68.6382 55.1411 73.7616 47.4762 78.6541C47.0414 78.9259 46.5385 79.1705 45.9677 79.3879C45.4241 79.6326 44.9349 79.7549 44.5 79.7549Z" fill="#8B2DFF"/>
<path d="M43.0323 79.3879L44.6079 75.7114L44.5631 75.6921L44.5178 75.674L43.0323 79.3879ZM41.5645 78.6541L39.4124 82.0258L39.4284 82.036L39.4445 82.0461L41.5645 78.6541ZM21.6278 63.2836L18.8629 66.1742L18.8703 66.1812L21.6278 63.2836ZM8.58132 46.7309L5.05566 48.6202L5.06106 48.6303L5.06652 48.6404L8.58132 46.7309ZM5.7274 19.6186L1.99749 18.1737L1.99399 18.1827L1.99053 18.1918L5.7274 19.6186ZM44.5 16.0308L40.9873 17.9442L44.4882 24.3712L48.0073 17.9541L44.5 16.0308ZM51.7979 7.95829L54.0167 11.2865L54.027 11.2796L54.0373 11.2726L51.7979 7.95829ZM71.2046 6.6944L69.607 10.3615L69.6136 10.3644L69.6202 10.3673L71.2046 6.6944ZM78.4209 11.7907L75.4859 14.5083L75.4949 14.518L75.5039 14.5277L78.4209 11.7907ZM83.2318 19.6186L79.4907 21.0342L79.4984 21.0546L79.5064 21.0749L83.2318 19.6186ZM80.3779 46.7309L76.8593 44.8285L76.856 44.8345L80.3779 46.7309ZM67.3722 63.2836L70.1367 66.1745L70.1371 66.1742L67.3722 63.2836ZM47.4762 78.6541L49.5962 82.0461L49.6124 82.036L49.6284 82.0258L47.4762 78.6541ZM45.9677 79.3879L44.5438 75.65L44.4337 75.6919L44.3263 75.7402L45.9677 79.3879ZM44.5 75.7549C44.5973 75.7549 44.6716 75.7621 44.7194 75.7686C44.7671 75.7751 44.7939 75.7817 44.7974 75.7826C44.8011 75.7835 44.7869 75.7801 44.7535 75.7685C44.7203 75.757 44.672 75.7388 44.6079 75.7114L41.4566 83.0645C42.2905 83.4219 43.3431 83.7549 44.5 83.7549V75.7549ZM44.5178 75.674C44.1645 75.5327 43.892 75.3917 43.6845 75.2621L39.4445 82.0461C40.1068 82.46 40.8128 82.8083 41.5467 83.1018L44.5178 75.674ZM43.7167 75.2824C36.2328 70.5054 29.7973 65.5365 24.3854 60.3861L18.8703 66.1812C24.711 71.7398 31.5667 77.0178 39.4124 82.0258L43.7167 75.2824ZM24.3927 60.3931C19.005 55.2396 14.9334 50.0439 12.0961 44.8214L5.06652 48.6404C8.37201 54.7248 12.9981 60.5643 18.8629 66.1742L24.3927 60.3931ZM12.107 44.8415C9.33832 39.675 8.01505 34.584 8.01505 29.5258H0.0150452C0.0150452 36.0464 1.73595 42.4254 5.05566 48.6202L12.107 44.8415ZM8.01505 29.5258C8.01505 26.3358 8.5177 23.5245 9.46427 21.0454L1.99053 18.1918C0.653964 21.6923 0.0150452 25.4859 0.0150452 29.5258H8.01505ZM9.45731 21.0635C10.454 18.4907 11.8064 16.3286 13.4961 14.5277L7.66205 9.05374C5.22038 11.656 3.33832 14.7125 1.99749 18.1737L9.45731 21.0635ZM13.4961 14.5277C15.1929 12.7192 17.1504 11.3385 19.393 10.3615L16.1979 3.02728C12.95 4.44219 10.0966 6.45898 7.66205 9.05374L13.4961 14.5277ZM19.393 10.3615C21.5991 9.40045 24.027 8.90051 26.7241 8.90051V0.90051C23.0068 0.90051 19.4822 1.5965 16.1979 3.02728L19.393 10.3615ZM26.7241 8.90051C30.0025 8.90051 32.7119 9.72431 35.0034 11.2726L39.4823 4.64393C35.7398 2.11522 31.4367 0.90051 26.7241 0.90051V8.90051ZM35.0034 11.2726C37.4657 12.9363 39.4581 15.1368 40.9873 17.9442L48.0127 14.1174C45.8998 10.2385 43.0541 7.0573 39.4823 4.64393L35.0034 11.2726ZM48.0073 17.9541C49.5647 15.1141 51.5683 12.9187 54.0167 11.2865L49.5791 4.63008C45.9934 7.02052 43.1318 10.2068 40.9928 14.1075L48.0073 17.9541ZM54.0373 11.2726C56.3335 9.7212 59.0307 8.90051 62.2759 8.90051V0.90051C57.5844 0.90051 53.2963 2.11833 49.5585 4.64393L54.0373 11.2726ZM62.2759 8.90051C64.973 8.90051 67.4009 9.40045 69.607 10.3615L72.8021 3.02728C69.5178 1.5965 65.9932 0.90051 62.2759 0.90051V8.90051ZM69.6202 10.3673C71.8841 11.3438 73.8286 12.7184 75.4859 14.5083L81.356 9.07307C78.9363 6.45977 76.0699 4.43686 72.7889 3.02156L69.6202 10.3673ZM75.5039 14.5277C77.1869 16.3214 78.5217 18.4734 79.4907 21.0342L86.973 18.203C85.6588 14.7298 83.7863 11.6632 81.338 9.05374L75.5039 14.5277ZM79.5064 21.0749C80.4723 23.5458 80.985 26.3467 80.985 29.5258H88.985C88.985 25.475 88.3289 21.6711 86.9573 18.1623L79.5064 21.0749ZM80.985 29.5258C80.985 34.577 79.6518 39.6635 76.8593 44.8285L83.8965 48.6333C87.2467 42.437 88.985 36.0534 88.985 29.5258H80.985ZM76.856 44.8345C74.0475 50.0502 69.9928 55.2417 64.6073 60.3931L70.1371 66.1742C76.0041 60.5623 80.6199 54.7185 83.8998 48.6273L76.856 44.8345ZM64.6076 60.3928C59.2255 65.5397 52.8063 70.5065 45.3241 75.2824L49.6284 82.0258C57.4758 77.0168 64.3205 71.7366 70.1367 66.1745L64.6076 60.3928ZM45.3562 75.2621C45.1786 75.3731 44.9163 75.508 44.5438 75.65L47.3917 83.1259C48.1607 82.8329 48.9041 82.4786 49.5962 82.0461L45.3562 75.2621ZM44.3263 75.7402C44.2331 75.7822 44.2003 75.7882 44.223 75.7826C44.2464 75.7767 44.3433 75.7549 44.5 75.7549V83.7549C45.6695 83.7549 46.7294 83.4315 47.6092 83.0356L44.3263 75.7402Z" fill="#5800C5" mask="url(#path-1-outside-1_1_182)"/>
</svg>
