<svg width="85" height="88" viewBox="0 0 85 88" fill="none" xmlns="http://www.w3.org/2000/svg">
<path d="M55.2962 24.361L47.7677 4.95122C45.4462 1.01626 39.7538 1.01626 37.4323 4.95122L29.9038 24.361C29.1227 25.6849 27.8633 26.6586 26.3853 27.0811L7.03879 29.4628C2.99303 30.6193 1.36351 35.4728 3.89159 38.8365L18.6891 53.5963C19.5355 54.7225 19.9586 56.1106 19.8844 57.5174L15.5767 78.77C15.343 83.1985 19.8286 86.3415 23.9112 84.6099L40.2571 74.0954C41.7545 73.4603 43.4455 73.4603 44.9429 74.0954L61.2888 84.6099C65.3714 86.3416 69.857 83.1985 69.6233 78.77L65.3156 57.5174C65.2414 56.1106 65.6645 54.7225 66.5109 53.5963L81.3084 38.8365C83.8365 35.4728 82.207 30.6193 78.1612 29.4628L58.8147 27.0811C57.3367 26.6586 56.0773 25.6849 55.2962 24.361Z" fill="#FCD802" stroke="#E7B101" stroke-width="4" stroke-linecap="round"/>
</svg>
